# xmcd
#
# Track frame offsets:
#	150
#	13890
#	27583
#	38212
#	52879
#	65962
#	78530
#	87932
#	97311
#	110946
#	122498
#	135928
#	147509
#	161488
#	173410
#	185569
#	199251
#	211608
#	223950
#	234652
#	246915
#	258749
#	270260
#	284760
#	301608
#	315937
#	327605
#	340421
#
# Disc length: 4691 seconds
#
# Revision: 1
# Processed by: cddbd v1.5.2PL0 Copyright (c) Steve Scherf et al.
# Submitted via: audiograbber 1.83.01
#
DISCID=ae12511c
DTITLE=George Jones - Step Right Up: 1970-1979: A Critical Anthology
DYEAR=1900
DGENRE=
TTITLE0=A Good Year for the Roses
TTITLE1=She's Mine
TTITLE2=Tell Me My Lying Eyes Are Wrong
TTITLE3=Where Grass Won't Grow
TTITLE4=Image of Me
TTITLE5=She's as Close as I Can Get to Loving You
TTITLE6=Right Won't Touch a Hand
TTITLE7=We Can Make It
TTITLE8=I'll Take You to My World
TTITLE9=A Picture of Me (Without You)
TTITLE10=She Loves Me (Right out of My Mind)
TTITLE11=Wine (You've Used Me Long Enough)
TTITLE12=The Grand Tour
TTITLE13=Once You've Had the Best
TTITLE14=The Door
TTITLE15=These Days (I Barely Get By)
TTITLE16=I Just Don't Give a Damn
TTITLE17=The Battle
TTITLE18=Wean Me
TTITLE19=A Drunk Can't Be a Man
TTITLE20=Stand on My Own Two Knees
TTITLE21=I Love You So Much It Hurts
TTITLE22=Rest in Peace
TTITLE23=Bartender's Blues
TTITLE24=I'll Just Take It out in Love
TTITLE25=Ain't Your Memory Got No Pride At All
TTITLE26=Here We Go
TTITLE27=Someday My Day Will Come
EXTD=
EXTT0=
EXTT1=
EXTT2=
EXTT3=
EXTT4=
EXTT5=
EXTT6=
EXTT7=
EXTT8=
EXTT9=
EXTT10=
EXTT11=
EXTT12=
EXTT13=
EXTT14=
EXTT15=
EXTT16=
EXTT17=
EXTT18=
EXTT19=
EXTT20=
EXTT21=
EXTT22=
EXTT23=
EXTT24=
EXTT25=
EXTT26=
EXTT27=
PLAYORDER=
